<svg width="178" height="32" viewBox="0 0 178 32" fill="none" xmlns="http://www.w3.org/2000/svg">
<path d="M24.026 15.6807C25.7498 16.3201 27.0843 17.2515 28.0296 18.4748C28.9749 19.6981 29.4475 21.1717 29.4475 22.8954C29.4475 25.4533 28.3911 27.4411 26.2781 28.8591C24.1651 30.2492 21.1068 30.9443 17.1032 30.9443H0.671875V1.75156H16.2691C20.1615 1.75156 23.0947 2.44663 25.0686 3.83676C27.0704 5.22689 28.0713 7.07576 28.0713 9.38337C28.0713 10.7457 27.7238 11.969 27.0287 13.0533C26.3615 14.1376 25.3606 15.0134 24.026 15.6807ZM10.3472 8.6327V12.9699H14.9346C17.0754 12.9699 18.1458 12.247 18.1458 10.8013C18.1458 9.35557 17.0754 8.6327 14.9346 8.6327H10.3472ZM16.2691 24.0631C18.4377 24.0631 19.522 23.2986 19.522 21.7694C19.522 20.2403 18.4377 19.4757 16.2691 19.4757H10.3472V24.0631H16.2691Z" fill="black"/>
<path d="M41.6016 10.5928C43.2698 8.67441 45.7303 7.71522 48.9832 7.71522V16.056C48.2325 15.9448 47.5375 15.8892 46.898 15.8892C43.6729 15.8892 42.0604 17.5295 42.0604 20.8102V30.9443H32.6353V8.13225H41.6016V10.5928Z" fill="black"/>
<path d="M107.148 23.938L105.647 25.5645V30.9443H96.2216V0H105.647V14.7632L112.194 8.13225H123.329L113.904 18.0161L124.08 30.9443H112.695L107.148 23.938Z" fill="black"/>
<path d="M149.165 19.5174C149.165 19.6564 149.123 20.3932 149.04 21.7277H133.192C133.526 22.5896 134.082 23.2569 134.86 23.7295C135.639 24.1743 136.612 24.3968 137.78 24.3968C138.78 24.3968 139.615 24.2717 140.282 24.0214C140.977 23.7712 141.728 23.3403 142.534 22.7286L147.455 27.6914C145.231 30.138 141.908 31.3613 137.488 31.3613C134.735 31.3613 132.316 30.8609 130.231 29.86C128.146 28.8313 126.533 27.4133 125.393 25.6062C124.254 23.799 123.684 21.7694 123.684 19.5174C123.684 17.2376 124.24 15.208 125.352 13.4286C126.492 11.6215 128.035 10.2174 129.981 9.21656C131.955 8.21566 134.165 7.71522 136.612 7.71522C138.919 7.71522 141.019 8.17396 142.909 9.09144C144.827 10.0089 146.343 11.3574 147.455 13.1367C148.595 14.9161 149.165 17.043 149.165 19.5174ZM136.695 14.1376C135.722 14.1376 134.916 14.4017 134.276 14.93C133.637 15.4582 133.22 16.2089 133.025 17.182H140.365C140.171 16.2367 139.754 15.4999 139.114 14.9717C138.475 14.4156 137.668 14.1376 136.695 14.1376Z" fill="black"/>
<path d="M167.986 7.71522C170.795 7.71522 173.047 8.56319 174.743 10.2592C176.466 11.9551 177.328 14.5129 177.328 17.9327V30.9443H167.903V19.5591C167.903 16.9457 166.972 15.639 165.109 15.639C164.052 15.639 163.191 16.0143 162.523 16.765C161.884 17.4878 161.564 18.6416 161.564 20.2264V30.9443H152.139V8.13225H161.105V10.3843C161.995 9.49458 163.024 8.82732 164.191 8.38248C165.359 7.93764 166.624 7.71522 167.986 7.71522Z" fill="black"/>
<path fill-rule="evenodd" clip-rule="evenodd" d="M62.8177 8.37976C60.6527 8.46222 58.7012 8.93867 56.9537 9.80017C55.0538 10.7504 53.5755 12.0751 52.5025 13.7763L52.5 13.7801C51.4327 15.4463 50.8931 17.3519 50.8931 19.5174C50.8931 21.6818 51.4322 23.6025 52.5011 25.298C53.5739 26.9721 55.0535 28.2988 56.957 29.278C58.7037 30.1384 60.654 30.6143 62.8177 30.6968H80.7024C82.8892 30.6143 84.8369 30.1374 86.5569 29.2776C88.4888 28.298 89.9658 26.9722 91.0093 25.3025L91.0107 25.3002C92.0805 23.6042 92.6201 21.6828 92.6201 19.5174C92.6201 17.3519 92.0805 15.4463 91.0132 13.7801L91.01 13.7752L91.0069 13.7702C89.9634 12.0745 88.4883 10.7514 86.5611 9.80097L86.5579 9.79938C84.8359 8.93839 82.8856 8.46129 80.6957 8.3795L62.8177 8.37976ZM80.7197 7.07626L80.7317 7.0767C83.0894 7.16318 85.2292 7.67816 87.1395 8.63312C89.2687 9.68354 90.9336 11.1665 92.1138 13.0822C93.3241 14.9736 93.9233 17.1254 93.9233 19.5174C93.9233 21.9114 93.3231 24.0767 92.1134 25.9948C90.9332 27.8825 89.2695 29.3638 87.1439 30.4412L87.1407 30.4428C85.2319 31.3972 83.0941 31.9123 80.7386 31.9996L80.7266 32H62.7932L62.7811 31.9995C60.4454 31.9122 58.307 31.3968 56.3757 30.4444L56.3708 30.442L56.366 30.4395C54.2689 29.3618 52.6086 27.8819 51.4027 25.9994L51.4002 25.9955C50.1902 24.0772 49.5899 21.9116 49.5899 19.5174C49.5899 17.1239 50.1899 14.9709 51.4016 13.0787C52.608 11.1671 54.2704 9.68477 56.3725 8.63372L56.3757 8.63213C58.307 7.67971 60.4454 7.16432 62.7811 7.07697L62.7932 7.07652L80.7197 7.07626ZM62.749 14.4618H80.7642L80.8198 14.4715C81.7435 14.6327 82.5308 15.0785 83.165 15.7888C83.9998 16.7238 84.3732 17.9973 84.3732 19.5174C84.3732 21.0391 83.9992 22.3202 83.1725 23.2792L83.1688 23.2835L83.165 23.2877C82.5327 23.9959 81.7481 24.4413 80.8277 24.6036L80.7716 24.6135L62.749 24.6147L62.6934 24.605C61.7697 24.4439 60.9824 23.998 60.3482 23.2877L60.3444 23.2835L60.3407 23.2792C59.514 22.3202 59.14 21.0391 59.14 19.5174C59.14 17.9973 59.5134 16.7238 60.3482 15.7888C60.9824 15.0785 61.7697 14.6327 62.6934 14.4715L62.749 14.4618ZM62.8646 15.765C62.2626 15.8812 61.753 16.1722 61.3203 16.6568C60.765 17.2787 60.4433 18.2016 60.4433 19.5174C60.4433 20.8287 60.763 21.7705 61.324 22.4239C61.7559 22.906 62.2643 23.1957 62.8646 23.3115L80.6547 23.3103C81.2522 23.1937 81.7587 22.9044 82.1892 22.4239C82.7502 21.7705 83.0699 20.8287 83.0699 19.5174C83.0699 18.2016 82.7482 17.2787 82.1929 16.6568C81.7602 16.1722 81.2506 15.8812 80.6486 15.765H62.8646Z" fill="black"/>
</svg>
