<svg width="177" height="32" viewBox="0 0 177 32" fill="none" xmlns="http://www.w3.org/2000/svg">
<path d="M23.3542 15.6807C25.0779 16.3201 26.4125 17.2515 27.3577 18.4748C28.303 19.6981 28.7757 21.1717 28.7757 22.8954C28.7757 25.4533 27.7192 27.4411 25.6062 28.8591C23.4932 30.2492 20.4349 30.9443 16.4313 30.9443H0V1.75156H15.5972C19.4896 1.75156 22.4228 2.44663 24.3968 3.83676C26.3986 5.22689 27.3994 7.07576 27.3994 9.38337C27.3994 10.7457 27.0519 11.969 26.3568 13.0533C25.6896 14.1376 24.6887 15.0134 23.3542 15.6807ZM9.6753 8.6327V12.9699H14.2627C16.4035 12.9699 17.4739 12.247 17.4739 10.8013C17.4739 9.35557 16.4035 8.6327 14.2627 8.6327H9.6753ZM15.5972 24.0631C17.7658 24.0631 18.8501 23.2986 18.8501 21.7694C18.8501 20.2403 17.7658 19.4757 15.5972 19.4757H9.6753V24.0631H15.5972Z" fill="white"/>
<path d="M40.9297 10.5928C42.5979 8.67441 45.0584 7.71522 48.3113 7.71522V16.056C47.5607 15.9448 46.8656 15.8892 46.2261 15.8892C43.001 15.8892 41.3885 17.5295 41.3885 20.8102V30.9443H31.9634V8.13225H40.9297V10.5928Z" fill="white"/>
<path d="M106.476 23.938L104.975 25.5645V30.9443H95.5497V0H104.975V14.7632L111.522 8.13225H122.657L113.232 18.0161L123.408 30.9443H112.023L106.476 23.938Z" fill="white"/>
<path d="M148.493 19.5174C148.493 19.6564 148.451 20.3932 148.368 21.7277H132.52C132.854 22.5896 133.41 23.2569 134.188 23.7295C134.967 24.1743 135.94 24.3968 137.108 24.3968C138.109 24.3968 138.943 24.2717 139.61 24.0214C140.305 23.7712 141.056 23.3403 141.862 22.7286L146.783 27.6914C144.559 30.138 141.236 31.3613 136.816 31.3613C134.063 31.3613 131.644 30.8609 129.559 29.86C127.474 28.8313 125.862 27.4133 124.722 25.6062C123.582 23.799 123.012 21.7694 123.012 19.5174C123.012 17.2376 123.568 15.208 124.68 13.4286C125.82 11.6215 127.363 10.2174 129.309 9.21656C131.283 8.21566 133.493 7.71522 135.94 7.71522C138.248 7.71522 140.347 8.17396 142.237 9.09144C144.156 10.0089 145.671 11.3574 146.783 13.1367C147.923 14.9161 148.493 17.043 148.493 19.5174ZM136.023 14.1376C135.05 14.1376 134.244 14.4017 133.605 14.93C132.965 15.4582 132.548 16.2089 132.353 17.182H139.693C139.499 16.2367 139.082 15.4999 138.442 14.9717C137.803 14.4156 136.996 14.1376 136.023 14.1376Z" fill="white"/>
<path d="M167.315 7.71522C170.123 7.71522 172.375 8.56319 174.071 10.2592C175.794 11.9551 176.656 14.5129 176.656 17.9327V30.9443H167.231V19.5591C167.231 16.9457 166.3 15.639 164.437 15.639C163.381 15.639 162.519 16.0143 161.851 16.765C161.212 17.4878 160.892 18.6416 160.892 20.2264V30.9443H151.467V8.13225H160.433V10.3843C161.323 9.49458 162.352 8.82732 163.52 8.38248C164.687 7.93764 165.952 7.71522 167.315 7.71522Z" fill="white"/>
<path fill-rule="evenodd" clip-rule="evenodd" d="M62.1458 8.37976C59.9808 8.46222 58.0294 8.93867 56.2818 9.80017C54.382 10.7504 52.9037 12.0751 51.8306 13.7763L51.8282 13.7801C50.7608 15.4463 50.2212 17.3519 50.2212 19.5174C50.2212 21.6818 50.7603 23.6025 51.8292 25.298C52.902 26.9721 54.3816 28.2988 56.2851 29.278C58.0318 30.1384 59.9821 30.6143 62.1458 30.6968H80.0305C82.2173 30.6143 84.165 30.1374 85.885 29.2776C87.8169 28.298 89.2939 26.9722 90.3374 25.3025L90.3388 25.3002C91.4087 23.6042 91.9482 21.6828 91.9482 19.5174C91.9482 17.3519 91.4087 15.4463 90.3413 13.7801L90.3381 13.7752L90.335 13.7702C89.2915 12.0745 87.8165 10.7514 85.8892 9.80097L85.886 9.79938C84.164 8.93839 82.2138 8.46129 80.0239 8.3795L62.1458 8.37976ZM80.0478 7.07626L80.0598 7.0767C82.4175 7.16318 84.5573 7.67816 86.4677 8.63312C88.5968 9.68354 90.2617 11.1665 91.4419 13.0822C92.6522 14.9736 93.2515 17.1254 93.2515 19.5174C93.2515 21.9114 92.6513 24.0767 91.4415 25.9948C90.2613 27.8825 88.5977 29.3638 86.472 30.4412L86.4689 30.4428C84.5601 31.3972 82.4222 31.9123 80.0668 31.9996L80.0547 32H62.1214L62.1092 31.9995C59.7735 31.9122 57.6351 31.3968 55.7038 30.4444L55.699 30.442L55.6942 30.4395C53.597 29.3618 51.9368 27.8819 50.7308 25.9994L50.7283 25.9955C49.5183 24.0772 48.918 21.9116 48.918 19.5174C48.918 17.1239 49.518 14.9709 50.7297 13.0787C51.9361 11.1671 53.5985 9.68477 55.7006 8.63372L55.7038 8.63213C57.6351 7.67971 59.7735 7.16432 62.1092 7.07697L62.1214 7.07652L80.0478 7.07626ZM62.0771 14.4618H80.0923L80.1479 14.4715C81.0716 14.6327 81.859 15.0785 82.4931 15.7888C83.328 16.7238 83.7013 17.9973 83.7013 19.5174C83.7013 21.0391 83.3273 22.3202 82.5006 23.2792L82.4969 23.2835L82.4931 23.2877C81.8608 23.9959 81.0762 24.4413 80.1558 24.6036L80.0997 24.6135L62.0771 24.6147L62.0216 24.605C61.0979 24.4439 60.3105 23.998 59.6763 23.2877L59.6725 23.2835L59.6688 23.2792C58.8421 22.3202 58.4682 21.0391 58.4682 19.5174C58.4682 17.9973 58.8415 16.7238 59.6763 15.7888C60.3105 15.0785 61.0979 14.6327 62.0216 14.4715L62.0771 14.4618ZM62.1927 15.765C61.5907 15.8812 61.0811 16.1722 60.6485 16.6568C60.0932 17.2787 59.7714 18.2016 59.7714 19.5174C59.7714 20.8287 60.0911 21.7705 60.6522 22.4239C61.084 22.906 61.5924 23.1957 62.1927 23.3115L79.9828 23.3103C80.5803 23.1937 81.0868 22.9044 81.5173 22.4239C82.0783 21.7705 82.398 20.8287 82.398 19.5174C82.398 18.2016 82.0763 17.2787 81.521 16.6568C81.0883 16.1722 80.5787 15.8812 79.9767 15.765H62.1927Z" fill="white"/>
</svg>
